<?xml version="1.0" encoding="UTF-8"?><svg id="Logo" xmlns="http://www.w3.org/2000/svg" viewBox="0 0 1440 1440"><defs><style>.cls-1{fill:#6200e4;}.cls-2{fill:#cba6f7;}@media (prefers-color-scheme:dark){.cls-1{fill:#cba6f7;}.cls-2{fill:#45475a;}}</style></defs><path id="exterior" class="cls-1" d="M12.79,691.91L337.79,126.53c11.8-20.45,33.62-35.53,57.22-35.53h649.97c23.62,0,45.42,15.07,57.24,35.53l324.98,564.15c11.8,20.66,11.8,46.01,0,66.67l-324.98,560.76c-11.82,20.43-33.62,30.89-57.24,30.89H395.01c-23.6,0-45.42-10.13-57.22-30.58L12.82,756.74c-11.81-20-11.81-44.85,0-64.85l-.02.02ZM281.9,963.77c0,8.33,5.01,16.01,12.21,20.17l413.97,238.82c7.2,4.16,16.22,4.16,23.42,0l414.27-238.82c7.2-4.16,12.23-11.84,12.23-20.17v-477.67c0-8.31-4.97-16.01-12.15-20.17l-413.99-238.78c-7.25-4.16-16.16-4.16-23.4,0l-414.32,238.8c-7.2,4.16-12.28,11.86-12.28,20.17v477.67l.02-.02Z"/><g id="package"><polygon id="background" class="cls-2" points="1015.17 570.79 701.52 389.7 404.35 542.25 420.83 875.88 734.48 1056.96 1031.65 904.42 1015.17 570.79"/><path id="outline" class="cls-1" d="M1072.25,539.93h0l-334.06-185.96c-11.14-6.31-24.87-6.31-36,0,0,0-334.43,185.59-334.8,185.59-10.83,7.09-18.45,18.63-18.56,31.92v296.94c0,13.36,7.42,25.98,18.93,32.29l334.06,185.59s7.79,3.34,8.91,3.34c2.97.74,6.31,1.11,9.28,1.11s6.31-.37,9.28-1.11c1.11,0,7.05-2.23,8.91-3.34l334.06-185.59c11.88-6.68,18.93-18.93,18.93-32.29v-296.94c.71-24.64-11.87-27.08-18.93-31.55ZM720,428.95l257.6,143.28-90.57,50.48-257.6-143.28s90.57-50.48,90.57-50.48ZM552.97,521.74l257.6,143.28-90.57,50.48-257.6-143.28s90.57-50.48,90.57-50.48ZM423.06,635.32l259.83,144.39v211.94l-259.83-144.39v-211.94ZM1016.94,847.27l-259.83,144.39v-211.94l92.8-51.59v119.15l74.24-41.2v-119.15l92.8-51.59v211.94Z"/></g></svg>
